<svg width="52" height="21" viewBox="0 0 52 21" fill="none" xmlns="http://www.w3.org/2000/svg">
<path d="M11.5859 13.0781C11.6797 13.0781 11.7188 13.125 11.7031 13.2188C11.6875 13.3125 11.6953 13.3906 11.7266 13.4531C11.7109 13.5156 11.6875 13.5625 11.6562 13.5938C11.6406 13.625 11.625 13.6641 11.6094 13.7109C11.5938 13.8203 11.5781 13.9297 11.5625 14.0391C11.5625 14.1328 11.5469 14.2188 11.5156 14.2969C11.3594 14.5 11.2891 14.6328 11.3047 14.6953C11.3203 14.7578 11.3203 14.8281 11.3047 14.9062C11.2266 15.1094 11.1875 15.2656 11.1875 15.375C11.125 15.4688 11.0859 15.5859 11.0703 15.7266C11.0547 15.8672 11.0547 16 11.0703 16.125C11.0391 16.2188 10.9766 16.2891 10.8828 16.3359C10.7891 16.3828 10.7109 16.4453 10.6484 16.5234C10.6484 16.6016 10.6484 16.6875 10.6484 16.7812C10.6641 16.8594 10.6406 16.9219 10.5781 16.9688C10.4375 17.0469 10.375 17.1172 10.3906 17.1797C10.4062 17.2422 10.4219 17.2969 10.4375 17.3438C10.3438 17.5312 10.2891 17.6562 10.2734 17.7188C10.2734 17.7656 10.2812 17.8281 10.2969 17.9062C10.2812 18.0781 10.25 18.1875 10.2031 18.2344C10.125 18.2344 10.0547 18.2422 9.99219 18.2578C9.94531 18.2734 9.88281 18.2969 9.80469 18.3281C9.69531 18.3281 9.60938 18.3047 9.54688 18.2578C9.39062 18.2891 9.30469 18.2891 9.28906 18.2578C9.27344 18.2422 9.25 18.2188 9.21875 18.1875C9.14062 18.1719 9.09375 18.1953 9.07812 18.2578C9.07812 18.3203 9.03906 18.3438 8.96094 18.3281C8.88281 18.1875 8.80469 18.1094 8.72656 18.0938C8.66406 18.0938 8.60156 18.1016 8.53906 18.1172C8.47656 18.0859 8.39844 18.0703 8.30469 18.0703C8.21094 18.0703 8.125 18.0781 8.04688 18.0938C8 18.0781 7.91406 18.0547 7.78906 18.0234C7.67969 18.0078 7.60938 17.9922 7.57812 17.9766C7.53125 18.0234 7.48438 18.0938 7.4375 18.1875C7.40625 18.2969 7.34375 18.3594 7.25 18.375C7.1875 18.2656 7.15625 18.1797 7.15625 18.1172C7.17188 18.0547 7.1875 17.9844 7.20312 17.9062C7.0625 18.0781 6.88281 18.1562 6.66406 18.1406C6.44531 18.125 6.28906 18.125 6.19531 18.1406C6.11719 18.1562 6.01562 18.1641 5.89062 18.1641C5.76562 18.1641 5.6875 18.1328 5.65625 18.0703C5.5 18.0391 5.41406 18.0469 5.39844 18.0938C5.39844 18.1406 5.36719 18.1719 5.30469 18.1875C5.14844 18.1719 5.04688 18.1562 5 18.1406C4.85938 18.0938 4.75781 18.1016 4.69531 18.1641C4.66406 18.2109 4.64062 18.25 4.625 18.2812C4.60938 18.3281 4.57812 18.3672 4.53125 18.3984C4.35938 18.2891 4.25781 18.25 4.22656 18.2812C4.21094 18.3125 4.16406 18.3203 4.08594 18.3047C4.05469 18.1641 4.03125 18.0938 4.01562 18.0938C4 18.0938 3.98438 18.0859 3.96875 18.0703C3.89062 18.0859 3.82812 18.1094 3.78125 18.1406C3.75 18.1875 3.6875 18.2031 3.59375 18.1875C3.40625 18.125 3.30469 18.0859 3.28906 18.0703C3.28906 18.0547 3.27344 18.0391 3.24219 18.0234C3.17969 18.0391 3.11719 18.0391 3.05469 18.0234C2.99219 18.0234 2.92969 18.0391 2.86719 18.0703C2.67969 18.1016 2.50781 18.1172 2.35156 18.1172C2.27344 18.1484 2.14844 18.1797 1.97656 18.2109C1.82031 18.2422 1.67969 18.2266 1.55469 18.1641C1.50781 17.9922 1.44531 17.9219 1.36719 17.9531C1.30469 17.9844 1.24219 18.0078 1.17969 18.0234C1.13281 18.0547 1.08594 18.0781 1.03906 18.0938C0.992188 18.1094 0.929688 18.1328 0.851562 18.1641C0.789062 18.1641 0.742188 18.1562 0.710938 18.1406C0.679688 18.1406 0.640625 18.1328 0.59375 18.1172C0.546875 18.1328 0.492188 18.1484 0.429688 18.1641C0.382812 18.1953 0.328125 18.1953 0.265625 18.1641C0.296875 18.0859 0.34375 18.0234 0.40625 17.9766C0.46875 17.9297 0.53125 17.8828 0.59375 17.8359C0.640625 17.7578 0.710938 17.6953 0.804688 17.6484C0.945312 17.5078 1.02344 17.4375 1.03906 17.4375C1.07031 17.4375 1.10156 17.4297 1.13281 17.4141C1.21094 17.3672 1.25781 17.2969 1.27344 17.2031C1.28906 17.1094 1.3125 17.0156 1.34375 16.9219C1.4375 16.7969 1.46094 16.7188 1.41406 16.6875C1.38281 16.6562 1.375 16.6016 1.39062 16.5234C1.45312 16.4297 1.58594 16.3828 1.78906 16.3828C1.82031 16.3047 1.82031 16.2344 1.78906 16.1719C1.75781 16.1094 1.75781 16.0234 1.78906 15.9141C1.82031 15.8828 1.85938 15.8672 1.90625 15.8672C1.95312 15.8516 1.99219 15.8281 2.02344 15.7969C2.03906 15.7188 2.03906 15.6562 2.02344 15.6094C2.00781 15.5469 1.98438 15.4766 1.95312 15.3984C1.98438 15.3359 1.99219 15.2734 1.97656 15.2109C1.97656 15.1484 1.96875 15.0859 1.95312 15.0234C1.96875 14.9766 1.98438 14.9375 2 14.9062C2.01562 14.875 2.02344 14.8281 2.02344 14.7656C1.96094 14.6094 1.95312 14.4531 2 14.2969C1.98438 14.25 1.94531 14.2188 1.88281 14.2031C1.83594 14.1875 1.80469 14.1562 1.78906 14.1094C1.83594 13.9219 1.83594 13.8203 1.78906 13.8047C1.75781 13.7734 1.72656 13.7344 1.69531 13.6875C1.69531 13.6094 1.71875 13.5625 1.76562 13.5469C1.8125 13.5156 1.85156 13.4766 1.88281 13.4297C1.88281 13.2734 1.85938 13.1484 1.8125 13.0547C1.90625 12.8672 1.96094 12.7578 1.97656 12.7266C2.00781 12.6797 2.00781 12.6172 1.97656 12.5391C1.99219 12.4453 2 12.3672 2 12.3047C2.01562 12.2422 2.02344 12.1719 2.02344 12.0938C1.97656 11.9219 1.97656 11.8281 2.02344 11.8125C2.07031 11.7969 2.08594 11.75 2.07031 11.6719C2.03906 11.6406 1.96875 11.5781 1.85938 11.4844C1.85938 11.375 1.84375 11.2969 1.8125 11.25C1.78125 11.1875 1.76562 11.1016 1.76562 10.9922C1.82812 10.8516 1.85156 10.7578 1.83594 10.7109C1.82031 10.6484 1.82812 10.5938 1.85938 10.5469C1.84375 10.5 1.82031 10.4609 1.78906 10.4297C1.75781 10.3984 1.73438 10.3594 1.71875 10.3125C1.73438 10.1875 1.78125 10.0781 1.85938 9.98438C1.82812 9.875 1.83594 9.78906 1.88281 9.72656C1.92969 9.64844 1.96094 9.5625 1.97656 9.46875C1.97656 9.39062 1.96875 9.32812 1.95312 9.28125C1.9375 9.21875 1.94531 9.14844 1.97656 9.07031C1.96094 9.02344 1.9375 8.98438 1.90625 8.95312C1.875 8.90625 1.85156 8.85938 1.83594 8.8125C1.83594 8.6875 1.82812 8.61719 1.8125 8.60156C1.79688 8.58594 1.78125 8.5625 1.76562 8.53125C1.76562 8.45312 1.78125 8.40625 1.8125 8.39062C1.84375 8.35938 1.875 8.32812 1.90625 8.29688C1.82812 8.10938 1.79688 8.00781 1.8125 7.99219C1.79688 7.82031 1.82031 7.71875 1.88281 7.6875C1.96094 7.65625 2.01562 7.60938 2.04688 7.54688C2 7.51562 1.94531 7.48438 1.88281 7.45312C1.83594 7.42188 1.79688 7.39062 1.76562 7.35938C1.76562 7.28125 1.77344 7.21875 1.78906 7.17188C1.82031 7.125 1.85156 7.07812 1.88281 7.03125C1.89844 6.67188 1.84375 6.44531 1.71875 6.35156C1.70312 6.28906 1.70312 6.24219 1.71875 6.21094C1.73438 6.16406 1.74219 6.10156 1.74219 6.02344C1.61719 5.85156 1.625 5.65625 1.76562 5.4375C1.67188 5.28125 1.63281 5.19531 1.64844 5.17969C1.67969 5.14844 1.71094 5.11719 1.74219 5.08594C1.72656 5.00781 1.71875 4.94531 1.71875 4.89844C1.73438 4.85156 1.75781 4.78906 1.78906 4.71094C1.77344 4.55469 1.75781 4.4375 1.74219 4.35938C1.72656 4.28125 1.71875 4.20312 1.71875 4.125C1.78125 4.0625 1.83594 3.96875 1.88281 3.84375C1.83594 3.67188 1.82031 3.53906 1.83594 3.44531C1.86719 3.33594 1.86719 3.22656 1.83594 3.11719C1.74219 3.05469 1.67188 2.96094 1.625 2.83594C1.57812 2.67969 1.54688 2.59375 1.53125 2.57812C1.4375 2.39062 1.34375 2.28906 1.25 2.27344C1.15625 2.24219 1.09375 2.1875 1.0625 2.10938C1.07812 1.95313 1.04688 1.875 0.96875 1.875C0.890625 1.85938 0.835938 1.82031 0.804688 1.75781C0.789062 1.57031 0.75 1.47656 0.6875 1.47656C0.625 1.46094 0.5625 1.44531 0.5 1.42969C0.484375 1.38281 0.4375 1.32031 0.359375 1.24219C0.28125 1.16406 0.226562 1.10938 0.195312 1.07812C0.445312 1 0.570312 0.976562 0.570312 1.00781C0.570312 1.03906 0.640625 1.03125 0.78125 0.984375C0.796875 1 0.851562 1.00781 0.945312 1.00781C1.05469 0.992188 1.11719 0.992188 1.13281 1.00781C1.24219 1.05469 1.30469 1.07031 1.32031 1.05469C1.33594 1.03906 1.35938 1.03125 1.39062 1.03125C1.59375 1.04687 1.6875 1.02344 1.67188 0.960938C1.70312 0.929687 1.74219 0.914062 1.78906 0.914062C1.85156 0.914062 1.91406 0.90625 1.97656 0.890625C2.10156 0.84375 2.21875 0.820312 2.32812 0.820312C2.35938 0.851563 2.36719 0.898438 2.35156 0.960938C2.35156 1.02344 2.35156 1.07812 2.35156 1.125C2.44531 1.09375 2.50781 1.04687 2.53906 0.984375C2.58594 0.921875 2.65625 0.882812 2.75 0.867188C2.82812 0.882812 2.91406 0.875 3.00781 0.84375C3.10156 0.8125 3.17969 0.835937 3.24219 0.914062C3.46094 0.882812 3.66406 0.882812 3.85156 0.914062C3.92969 0.882812 4 0.851563 4.0625 0.820312C4.14062 0.789062 4.21875 0.796875 4.29688 0.84375C4.35938 0.9375 4.40625 0.984375 4.4375 0.984375C4.46875 0.984375 4.49219 1 4.50781 1.03125C4.49219 1.17188 4.51562 1.28906 4.57812 1.38281C4.57812 1.50781 4.55469 1.60156 4.50781 1.66406C4.46094 1.72656 4.44531 1.82031 4.46094 1.94531C4.53906 2.10156 4.59375 2.21094 4.625 2.27344C4.59375 2.36719 4.5625 2.46094 4.53125 2.55469C4.51562 2.63281 4.48438 2.70313 4.4375 2.76562C4.5 3.01562 4.5 3.1875 4.4375 3.28125C4.53125 3.42188 4.5625 3.59375 4.53125 3.79688C4.51562 3.98438 4.53906 4.16406 4.60156 4.33594C4.58594 4.49219 4.58594 4.58594 4.60156 4.61719C4.61719 4.63281 4.63281 4.65625 4.64844 4.6875C4.64844 4.89062 4.65625 5.01562 4.67188 5.0625C4.70312 5.09375 4.71094 5.14844 4.69531 5.22656C4.67969 5.44531 4.67188 5.59375 4.67188 5.67188C4.60938 5.79688 4.59375 5.92969 4.625 6.07031C4.65625 6.21094 4.66406 6.36719 4.64844 6.53906C4.61719 6.66406 4.60938 6.74219 4.625 6.77344C4.64062 6.80469 4.65625 6.83594 4.67188 6.86719C4.65625 6.91406 4.64844 6.96875 4.64844 7.03125C4.66406 7.07812 4.65625 7.11719 4.625 7.14844C4.60938 7.27344 4.60938 7.39844 4.625 7.52344C4.65625 7.63281 4.67188 7.73438 4.67188 7.82812C4.60938 7.98438 4.58594 8.07031 4.60156 8.08594C4.63281 8.08594 4.65625 8.10156 4.67188 8.13281C4.70312 8.25781 4.70312 8.39062 4.67188 8.53125C4.6875 8.60938 4.70312 8.67969 4.71875 8.74219C4.73438 8.78906 4.74219 8.85938 4.74219 8.95312C4.74219 9.03125 4.72656 9.10938 4.69531 9.1875C4.67969 9.26562 4.67188 9.34375 4.67188 9.42188C4.67188 9.5 4.67969 9.58594 4.69531 9.67969C4.71094 9.75781 4.71094 9.83594 4.69531 9.91406C4.69531 9.99219 4.67969 10.0625 4.64844 10.125C4.63281 10.1719 4.60938 10.2344 4.57812 10.3125C4.60938 10.375 4.625 10.4453 4.625 10.5234C4.625 10.6016 4.64062 10.6641 4.67188 10.7109C4.6875 10.8359 4.70312 10.9141 4.71875 10.9453C4.75 10.9766 4.75781 11.0156 4.74219 11.0625C4.74219 11.1094 4.72656 11.1562 4.69531 11.2031C4.67969 11.2344 4.67188 11.2734 4.67188 11.3203C4.73438 11.5078 4.75781 11.625 4.74219 11.6719C4.72656 11.7188 4.71094 11.7656 4.69531 11.8125C4.71094 11.8906 4.71875 11.9766 4.71875 12.0703C4.71875 12.1484 4.70312 12.2266 4.67188 12.3047C4.6875 12.3828 4.69531 12.4609 4.69531 12.5391C4.69531 12.6172 4.67969 12.6875 4.64844 12.75C4.69531 12.875 4.71875 13.0078 4.71875 13.1484C4.70312 13.1953 4.67969 13.2422 4.64844 13.2891C4.61719 13.3359 4.60156 13.3984 4.60156 13.4766C4.61719 13.6797 4.61719 13.8047 4.60156 13.8516C4.60156 13.8984 4.60156 13.9609 4.60156 14.0391C4.60156 14.1172 4.61719 14.2188 4.64844 14.3438C4.64844 14.4062 4.64062 14.4688 4.625 14.5312C4.625 14.5781 4.63281 14.625 4.64844 14.6719C4.64844 14.7344 4.65625 14.7969 4.67188 14.8594C4.6875 14.9219 4.71094 14.9922 4.74219 15.0703C4.75781 15.1328 4.75781 15.1953 4.74219 15.2578C4.74219 15.3047 4.74219 15.3594 4.74219 15.4219C4.77344 15.5 4.79688 15.5938 4.8125 15.7031C4.82812 15.7969 4.875 15.8672 4.95312 15.9141C5.04688 15.8984 5.125 15.8672 5.1875 15.8203C5.26562 15.7578 5.36719 15.7422 5.49219 15.7734C5.57031 15.7422 5.66406 15.6953 5.77344 15.6328C5.89844 15.5703 6.01562 15.5469 6.125 15.5625C6.21875 15.6719 6.34375 15.7109 6.5 15.6797C6.67188 15.6328 6.80469 15.625 6.89844 15.6562C6.97656 15.6406 7.03125 15.6094 7.0625 15.5625C7.09375 15.5 7.15625 15.4844 7.25 15.5156C7.28125 15.5625 7.3125 15.6172 7.34375 15.6797C7.39062 15.7266 7.39844 15.7812 7.36719 15.8438C7.38281 15.8438 7.42969 15.8438 7.50781 15.8438C7.58594 15.8281 7.66406 15.8203 7.74219 15.8203C7.82031 15.8203 7.89062 15.8281 7.95312 15.8438C8.03125 15.8438 8.07031 15.8594 8.07031 15.8906C8.11719 15.8594 8.15625 15.8359 8.1875 15.8203C8.21875 15.7891 8.26562 15.7656 8.32812 15.75C8.375 15.7656 8.4375 15.75 8.51562 15.7031C8.59375 15.6406 8.67188 15.5859 8.75 15.5391C8.82812 15.4766 8.90625 15.4297 8.98438 15.3984C9.07812 15.3516 9.14844 15.3438 9.19531 15.375C9.24219 15.3438 9.28125 15.2969 9.3125 15.2344C9.34375 15.1719 9.39062 15.1562 9.45312 15.1875C9.53125 15.2344 9.58594 15.2422 9.61719 15.2109C9.66406 15.1641 9.72656 15.1406 9.80469 15.1406C9.88281 15.1094 9.9375 15.0703 9.96875 15.0234C10.0156 14.9609 10.0703 14.9062 10.1328 14.8594C10.1484 14.7031 10.2031 14.5938 10.2969 14.5312C10.4844 14.5 10.5859 14.4531 10.6016 14.3906C10.6328 14.3281 10.6328 14.2734 10.6016 14.2266C10.6797 14.1484 10.7188 14.0469 10.7188 13.9219C10.7656 13.8438 10.8594 13.8359 11 13.8984C11.0625 13.8672 11.1016 13.8281 11.1172 13.7812C11.1484 13.7188 11.1797 13.6484 11.2109 13.5703C11.2891 13.4922 11.3438 13.3984 11.375 13.2891C11.4062 13.1797 11.4766 13.1094 11.5859 13.0781ZM24.0547 8.8125C24.1328 8.98438 24.125 9.14062 24.0312 9.28125C23.9531 9.42188 23.875 9.55469 23.7969 9.67969C23.8125 9.74219 23.8281 9.79688 23.8438 9.84375C23.8594 9.875 23.875 9.91406 23.8906 9.96094C23.8906 10.0703 23.8594 10.1875 23.7969 10.3125C23.8125 10.4375 23.8047 10.5625 23.7734 10.6875C23.7578 10.7969 23.7578 10.9141 23.7734 11.0391C23.7891 11.0859 23.8047 11.1328 23.8203 11.1797C23.8359 11.2266 23.8438 11.2734 23.8438 11.3203C23.8281 11.4453 23.7891 11.5391 23.7266 11.6016C23.6797 11.6641 23.6328 11.7344 23.5859 11.8125C23.6172 11.8906 23.6328 11.9766 23.6328 12.0703C23.6484 12.1641 23.6406 12.25 23.6094 12.3281C23.5469 12.375 23.5 12.4375 23.4688 12.5156C23.4375 12.5781 23.4062 12.6406 23.375 12.7031C23.4062 12.8594 23.4141 12.9922 23.3984 13.1016C23.3828 13.2109 23.3438 13.3047 23.2812 13.3828C23.3281 13.7109 23.2578 13.9688 23.0703 14.1562C22.9922 14.375 22.9062 14.5156 22.8125 14.5781C22.7188 14.625 22.6484 14.7109 22.6016 14.8359C22.6172 14.9453 22.6406 15.0547 22.6719 15.1641C22.7031 15.2578 22.6562 15.3203 22.5312 15.3516C22.4844 15.4297 22.4297 15.5078 22.3672 15.5859C22.3203 15.6641 22.2812 15.7422 22.25 15.8203C22.25 16.0234 22.2109 16.125 22.1328 16.125C22.1172 16.1719 22.0938 16.2109 22.0625 16.2422C22.0312 16.2578 22 16.2891 21.9688 16.3359C21.9219 16.3828 21.8906 16.4375 21.875 16.5C21.875 16.5625 21.8516 16.6094 21.8047 16.6406C21.5859 16.75 21.4375 16.8359 21.3594 16.8984C21.2812 16.9609 21.2188 17.0469 21.1719 17.1562C21.0469 17.1875 20.9453 17.2422 20.8672 17.3203C20.8047 17.3828 20.6953 17.4062 20.5391 17.3906C20.4453 17.4219 20.3906 17.5 20.375 17.625C20.3594 17.7344 20.3047 17.8047 20.2109 17.8359C19.9922 17.9141 19.8438 18.0078 19.7656 18.1172C19.7031 18.2266 19.5781 18.2656 19.3906 18.2344C19.2188 18.3281 19.0391 18.4297 18.8516 18.5391C18.7422 18.5078 18.6328 18.5 18.5234 18.5156C18.4297 18.5469 18.3281 18.5469 18.2188 18.5156C18.1719 18.4688 18.1328 18.4297 18.1016 18.3984C18.0703 18.3672 18.0312 18.3359 17.9844 18.3047C17.875 18.3203 17.7891 18.3594 17.7266 18.4219C17.6797 18.5 17.6172 18.5625 17.5391 18.6094C17.4141 18.6406 17.2891 18.6406 17.1641 18.6094C17.0547 18.5938 16.9375 18.5859 16.8125 18.5859C16.7344 18.5547 16.6641 18.5234 16.6016 18.4922C16.5391 18.4766 16.4688 18.4609 16.3906 18.4453C16.3438 18.4141 16.3047 18.375 16.2734 18.3281C16.2422 18.2812 16.2109 18.2422 16.1797 18.2109C16.1016 18.1953 16.0234 18.1875 15.9453 18.1875C15.8828 18.2031 15.8125 18.2109 15.7344 18.2109C15.6562 18.1797 15.5859 18.1328 15.5234 18.0703C15.4609 18.0234 15.3984 17.9766 15.3359 17.9297C15.2734 17.9141 15.2188 17.8984 15.1719 17.8828C15.125 17.8516 15.0859 17.8203 15.0547 17.7891C14.8672 17.7266 14.7266 17.6484 14.6328 17.5547C14.5859 17.5703 14.5391 17.5938 14.4922 17.625C14.4609 17.6406 14.4141 17.6406 14.3516 17.625C14.2891 17.5938 14.2422 17.5469 14.2109 17.4844C14.1953 17.4062 14.1484 17.3359 14.0703 17.2734C14.0234 17.2266 13.9375 17.1797 13.8125 17.1328C13.7188 17.0391 13.6562 16.9531 13.625 16.875C13.6094 16.75 13.5859 16.6719 13.5547 16.6406C13.5391 16.6094 13.5156 16.5781 13.4844 16.5469C13.2656 16.375 13.1016 16.2422 12.9922 16.1484C12.8984 16.0391 12.8516 15.875 12.8516 15.6562C12.8203 15.5625 12.7969 15.4766 12.7812 15.3984C12.6875 15.3203 12.6016 15.2344 12.5234 15.1406C12.4609 15.0469 12.3906 14.9531 12.3125 14.8594C12.2969 14.75 12.2969 14.625 12.3125 14.4844C12.2812 14.4062 12.2422 14.3516 12.1953 14.3203C12.1484 14.2734 12.1094 14.2109 12.0781 14.1328C12.0625 14.0703 12.0703 14.0312 12.1016 14.0156C12.1484 13.9844 12.1562 13.9375 12.125 13.875C12.1094 13.8125 12.0703 13.7734 12.0078 13.7578C11.9609 13.7422 11.9219 13.7188 11.8906 13.6875C11.8125 13.5625 11.7891 13.3984 11.8203 13.1953C11.7891 13.1172 11.75 13.0625 11.7031 13.0312C11.6562 13 11.6172 12.9609 11.5859 12.9141C11.6016 12.8359 11.6172 12.7656 11.6328 12.7031C11.6484 12.625 11.6562 12.5391 11.6562 12.4453C11.6406 12.3516 11.6094 12.2656 11.5625 12.1875C11.5156 12.0938 11.4766 12.0078 11.4453 11.9297C11.5234 11.7734 11.5234 11.6094 11.4453 11.4375C11.4766 11.3594 11.5156 11.2891 11.5625 11.2266C11.6094 11.1484 11.6172 11.0469 11.5859 10.9219C11.4922 10.8438 11.4062 10.7969 11.3281 10.7812C11.2656 10.7656 11.2188 10.7344 11.1875 10.6875C11.1406 10.5781 11.125 10.4688 11.1406 10.3594C11.1562 10.2344 11.1797 10.1328 11.2109 10.0547C11.2266 9.86719 11.2422 9.73438 11.2578 9.65625C11.2891 9.5625 11.3125 9.46094 11.3281 9.35156C11.2031 9.10156 11.1641 8.91406 11.2109 8.78906C11.2578 8.64844 11.2969 8.50781 11.3281 8.36719C11.3125 8.32031 11.2969 8.28125 11.2812 8.25C11.2656 8.20312 11.25 8.15625 11.2344 8.10938C11.2344 7.95312 11.25 7.82031 11.2812 7.71094C11.3125 7.60156 11.3438 7.48438 11.375 7.35938C11.4531 7.28125 11.5156 7.17969 11.5625 7.05469C11.5625 6.92969 11.5781 6.83594 11.6094 6.77344C11.6719 6.63281 11.6875 6.55469 11.6562 6.53906C11.6406 6.50781 11.6406 6.47656 11.6562 6.44531C11.6562 6.27344 11.6641 6.10156 11.6797 5.92969C11.7109 5.75781 11.7109 5.57812 11.6797 5.39062C11.7578 5.28125 11.8438 5.16406 11.9375 5.03906C11.9688 4.99219 12 4.94531 12.0312 4.89844C12.0781 4.83594 12.125 4.77344 12.1719 4.71094C12.1406 4.46094 12.1641 4.28125 12.2422 4.17188C12.3359 4.0625 12.4609 3.97656 12.6172 3.91406C12.8516 3.80469 13.0156 3.6875 13.1094 3.5625C13.2031 3.42188 13.3125 3.29688 13.4375 3.1875C13.4375 3.0625 13.4531 2.96094 13.4844 2.88281C13.5156 2.78906 13.5469 2.69531 13.5781 2.60156C13.6719 2.52344 13.7578 2.46094 13.8359 2.41406C13.9297 2.35156 14.0156 2.28906 14.0938 2.22656C14.1094 2.11719 14.1406 2.03125 14.1875 1.96875C14.25 1.90625 14.3047 1.84375 14.3516 1.78125C14.5078 1.71875 14.6406 1.64062 14.75 1.54688C14.8594 1.45312 15 1.38281 15.1719 1.33594C15.2188 1.25781 15.2656 1.1875 15.3125 1.125C15.3594 1.04687 15.4219 0.992188 15.5 0.960938C15.5625 0.960938 15.6094 0.953125 15.6406 0.9375C15.6875 0.90625 15.7344 0.890625 15.7812 0.890625C15.9688 0.90625 16.0938 0.898438 16.1562 0.867188C16.2344 0.820312 16.3047 0.78125 16.3672 0.75C16.4453 0.78125 16.5156 0.789062 16.5781 0.773438C16.6406 0.742187 16.6953 0.710938 16.7422 0.679688C16.8047 0.632812 16.8594 0.601562 16.9062 0.585938C16.9531 0.570313 17.0156 0.585938 17.0938 0.632812C17.1875 0.757813 17.2656 0.804688 17.3281 0.773438C17.3906 0.742187 17.4609 0.71875 17.5391 0.703125C17.6484 0.734375 17.75 0.734375 17.8438 0.703125C17.9531 0.671875 18.0703 0.671875 18.1953 0.703125C18.2578 0.671875 18.3047 0.648437 18.3359 0.632812C18.3828 0.601562 18.4453 0.585938 18.5234 0.585938C18.6328 0.695312 18.6719 0.765625 18.6406 0.796875C18.625 0.8125 18.6172 0.835937 18.6172 0.867188C18.7266 0.882812 18.8281 0.9375 18.9219 1.03125C19.125 1 19.2812 0.984375 19.3906 0.984375C19.4688 1 19.5703 1.03906 19.6953 1.10156C19.7266 1.13281 19.7578 1.17188 19.7891 1.21875C19.8203 1.25 19.8516 1.28125 19.8828 1.3125C20.0234 1.48438 20.125 1.59375 20.1875 1.64062C20.25 1.6875 20.3203 1.72656 20.3984 1.75781C20.4609 1.74219 20.4844 1.71094 20.4688 1.66406C20.4688 1.61719 20.5078 1.58594 20.5859 1.57031C20.6641 1.55469 20.7188 1.59375 20.75 1.6875C20.7969 1.78125 20.8438 1.85156 20.8906 1.89844C20.9688 1.96094 21.0312 2.03125 21.0781 2.10938C21.1406 2.1875 21.2266 2.24219 21.3359 2.27344C21.4297 2.25781 21.5156 2.25781 21.5938 2.27344C21.6719 2.28906 21.7266 2.33594 21.7578 2.41406C21.7734 2.52344 21.7656 2.60156 21.7344 2.64844C21.7031 2.69531 21.6797 2.75781 21.6641 2.83594C21.7109 2.89844 21.7734 2.9375 21.8516 2.95312C21.9453 2.96875 22.0078 3.01562 22.0391 3.09375C22.2266 3.1875 22.3125 3.28906 22.2969 3.39844C22.2812 3.50781 22.2578 3.60156 22.2266 3.67969C22.2578 3.75781 22.2891 3.82812 22.3203 3.89062C22.3516 3.9375 22.4219 3.95312 22.5312 3.9375C22.6719 4.03125 22.7422 4.23438 22.7422 4.54688C22.8359 4.60938 22.9297 4.71094 23.0234 4.85156C23.1172 4.97656 23.1172 5.11719 23.0234 5.27344C23.0547 5.35156 23.0938 5.42188 23.1406 5.48438C23.1875 5.54688 23.2109 5.63281 23.2109 5.74219C23.3516 5.86719 23.4297 5.94531 23.4453 5.97656C23.4609 5.99219 23.4766 6.01562 23.4922 6.04688C23.4766 6.09375 23.4688 6.14844 23.4688 6.21094C23.4844 6.25781 23.4922 6.32031 23.4922 6.39844C23.4922 6.58594 23.5078 6.73438 23.5391 6.84375C23.5703 6.9375 23.6172 7.02344 23.6797 7.10156C23.6797 7.14844 23.6875 7.19531 23.7031 7.24219C23.7188 7.27344 23.7344 7.3125 23.75 7.35938C23.75 7.46875 23.7422 7.5625 23.7266 7.64062C23.7109 7.71875 23.7031 7.80469 23.7031 7.89844C23.7031 8.08594 23.7188 8.21875 23.75 8.29688C23.7969 8.375 23.8125 8.49219 23.7969 8.64844C23.8281 8.67969 23.8672 8.71094 23.9141 8.74219C23.9766 8.75781 24.0234 8.78125 24.0547 8.8125ZM20.9375 9.09375C20.9062 9.04688 20.8984 9 20.9141 8.95312C20.9297 8.89062 20.9375 8.82812 20.9375 8.76562L20.6562 8.48438C20.625 8.40625 20.6094 8.32812 20.6094 8.25C20.625 8.15625 20.6562 8.08594 20.7031 8.03906C20.625 7.83594 20.5859 7.6875 20.5859 7.59375C20.5859 7.48438 20.5938 7.39062 20.6094 7.3125C20.5781 7.23438 20.5547 7.16406 20.5391 7.10156C20.5234 7.02344 20.5234 6.92969 20.5391 6.82031C20.5859 6.61719 20.5625 6.48438 20.4688 6.42188C20.3906 6.34375 20.3516 6.26562 20.3516 6.1875C20.3359 5.96875 20.2812 5.82031 20.1875 5.74219C20.1094 5.66406 20.0547 5.5625 20.0234 5.4375C19.9297 5.26562 19.875 5.15625 19.8594 5.10938C19.8438 5.04688 19.8438 4.98438 19.8594 4.92188C19.8281 4.89062 19.7891 4.86719 19.7422 4.85156C19.6953 4.82031 19.6562 4.78906 19.625 4.75781C19.6094 4.69531 19.5781 4.64844 19.5312 4.61719C19.4844 4.58594 19.4453 4.53125 19.4141 4.45312C19.4141 4.26562 19.3672 4.125 19.2734 4.03125C19.1484 4 19.0547 3.95312 18.9922 3.89062C18.9453 3.8125 18.8984 3.73438 18.8516 3.65625C18.7734 3.5625 18.7109 3.53906 18.6641 3.58594C18.6328 3.61719 18.5781 3.625 18.5 3.60938C18.4219 3.59375 18.3828 3.55469 18.3828 3.49219C18.3984 3.42969 18.4219 3.375 18.4531 3.32812C18.375 3.3125 18.2969 3.30469 18.2188 3.30469C18.1406 3.30469 18.0938 3.26562 18.0781 3.1875C17.9062 3.14062 17.8047 3.08594 17.7734 3.02344C17.7422 2.94531 17.6797 2.89063 17.5859 2.85938C17.5078 2.89063 17.4453 2.92969 17.3984 2.97656C17.3672 3.00781 17.3203 3.03906 17.2578 3.07031C17.2578 3.21094 17.1875 3.30469 17.0469 3.35156C17 3.36719 16.9531 3.36719 16.9062 3.35156C16.875 3.33594 16.8359 3.32812 16.7891 3.32812C16.7266 3.34375 16.6719 3.35938 16.625 3.375C16.5938 3.39062 16.5547 3.41406 16.5078 3.44531C16.4609 3.53906 16.3906 3.61719 16.2969 3.67969C16.2188 3.74219 16.1406 3.80469 16.0625 3.86719C16.0156 4.02344 15.9688 4.11719 15.9219 4.14844C15.875 4.17969 15.8125 4.21094 15.7344 4.24219C15.7031 4.32031 15.6562 4.39844 15.5938 4.47656C15.5312 4.53906 15.4766 4.60938 15.4297 4.6875C15.3203 4.90625 15.25 5.05469 15.2188 5.13281C15.1875 5.21094 15.1719 5.3125 15.1719 5.4375C15.0938 5.59375 15.0234 5.74219 14.9609 5.88281C14.9141 6.00781 14.8594 6.13281 14.7969 6.25781C14.7344 6.42969 14.6641 6.60156 14.5859 6.77344C14.5234 6.92969 14.5078 7.11719 14.5391 7.33594C14.5547 7.58594 14.5469 7.78125 14.5156 7.92188C14.4844 8.04688 14.4531 8.19531 14.4219 8.36719C14.3906 8.39844 14.3672 8.44531 14.3516 8.50781C14.3359 8.55469 14.3125 8.60156 14.2812 8.64844C14.3594 8.83594 14.3828 8.95312 14.3516 9C14.3359 9.04688 14.3359 9.09375 14.3516 9.14062L14.4453 9.46875C14.4141 9.51562 14.3906 9.55469 14.375 9.58594C14.3594 9.61719 14.3359 9.65625 14.3047 9.70312C14.3359 9.76562 14.3438 9.82812 14.3281 9.89062C14.3125 9.9375 14.3047 10 14.3047 10.0781C14.3359 10.1562 14.3672 10.2344 14.3984 10.3125C14.4297 10.375 14.4609 10.4453 14.4922 10.5234C14.4766 10.5859 14.4609 10.6406 14.4453 10.6875C14.4297 10.7188 14.4141 10.7656 14.3984 10.8281C14.4141 10.9062 14.4531 10.9531 14.5156 10.9688C14.5781 10.9844 14.6172 11.0312 14.6328 11.1094C14.6172 11.3906 14.5938 11.6172 14.5625 11.7891C14.5469 11.9453 14.5703 12.0859 14.6328 12.2109C14.7578 12.3984 14.8047 12.5312 14.7734 12.6094C14.7578 12.6875 14.7578 12.7734 14.7734 12.8672C14.9141 12.9609 14.9844 13.1328 14.9844 13.3828C15.0156 13.4297 15.0547 13.4766 15.1016 13.5234C15.1641 13.5547 15.2109 13.6016 15.2422 13.6641C15.2734 13.7422 15.2891 13.8203 15.2891 13.8984C15.2891 13.9609 15.3047 14.0391 15.3359 14.1328C15.4922 14.2109 15.5938 14.3516 15.6406 14.5547C15.625 14.7578 15.6719 14.8828 15.7812 14.9297C15.8906 15.0547 15.9688 15.125 16.0156 15.1406C16.0625 15.1406 16.1016 15.1562 16.1328 15.1875C16.2109 15.4688 16.3594 15.6328 16.5781 15.6797L16.8594 15.7734C16.9375 15.8047 17.0156 15.875 17.0938 15.9844C17.2188 16 17.3125 16 17.375 15.9844C17.4531 15.9531 17.5312 15.9219 17.6094 15.8906C17.6719 15.8906 17.7656 15.9062 17.8906 15.9375C17.9375 15.9062 17.9922 15.8828 18.0547 15.8672C18.1172 15.8359 18.1875 15.8359 18.2656 15.8672C18.4375 15.7578 18.5391 15.6875 18.5703 15.6562C18.6172 15.625 18.6875 15.6094 18.7812 15.6094C18.8125 15.5625 18.8359 15.5078 18.8516 15.4453C18.8672 15.3828 18.9062 15.3359 18.9688 15.3047C19.125 15.2734 19.2344 15.25 19.2969 15.2344C19.4219 15.0312 19.5156 14.9219 19.5781 14.9062C19.6562 14.875 19.7109 14.8359 19.7422 14.7891C19.7422 14.5391 19.7656 14.3828 19.8125 14.3203C19.8594 14.2422 19.9141 14.1719 19.9766 14.1094C19.9922 13.9844 20.0078 13.8906 20.0234 13.8281C20.0547 13.75 20.0703 13.6484 20.0703 13.5234C20.1328 13.4141 20.2031 13.3281 20.2812 13.2656C20.3594 13.1875 20.4375 13.1094 20.5156 13.0312C20.5156 12.7344 20.5156 12.4531 20.5156 12.1875C20.5156 12.0625 20.5234 12 20.5391 12C20.5547 11.9844 20.5625 11.9609 20.5625 11.9297C20.625 11.8047 20.6719 11.7031 20.7031 11.625C20.7344 11.5312 20.7656 11.4453 20.7969 11.3672C20.75 11.1641 20.7422 11.0312 20.7734 10.9688C20.8047 10.9062 20.8359 10.8359 20.8672 10.7578C20.8828 10.6328 20.875 10.5312 20.8438 10.4531C20.8125 10.3594 20.7812 10.2734 20.75 10.1953C20.7812 10.0859 20.8047 9.98438 20.8203 9.89062C20.8516 9.78125 20.8828 9.6875 20.9141 9.60938C20.8984 9.51562 20.8672 9.44531 20.8203 9.39844C20.7734 9.35156 20.75 9.28125 20.75 9.1875L20.9375 9.09375ZM36.8984 15C36.8672 15.0312 36.8203 15.0469 36.7578 15.0469C36.7109 15.0312 36.6641 15.0156 36.6172 15C36.6484 15.0469 36.6875 15.1172 36.7344 15.2109C36.7969 15.3047 36.8516 15.4062 36.8984 15.5156C36.9453 15.6094 36.9844 15.7109 37.0156 15.8203C37.0625 15.9141 37.0938 15.9922 37.1094 16.0547C37.0156 16.1016 36.9062 16.1094 36.7812 16.0781C36.7344 16.1562 36.7344 16.2734 36.7812 16.4297C36.8438 16.5859 36.8906 16.7031 36.9219 16.7812C36.9219 16.875 36.8672 16.9453 36.7578 16.9922C36.7109 17.1641 36.6875 17.2734 36.6875 17.3203C36.6875 17.3672 36.7031 17.4141 36.7344 17.4609C36.8438 17.6328 36.9062 17.75 36.9219 17.8125C36.9375 17.8594 36.9297 17.9062 36.8984 17.9531C36.8359 17.9844 36.7656 18 36.6875 18C36.625 18 36.5625 18.0078 36.5 18.0234C36.4375 17.9922 36.3828 17.9688 36.3359 17.9531C36.3047 17.9219 36.2266 17.8984 36.1016 17.8828C36.1016 18.0078 36.0156 18.0859 35.8438 18.1172C35.7344 18.2734 35.6562 18.3672 35.6094 18.3984C35.5781 18.4453 35.5469 18.4844 35.5156 18.5156C35.5469 18.5625 35.5781 18.5938 35.6094 18.6094C35.6562 18.6406 35.6875 18.6953 35.7031 18.7734C35.625 18.8672 35.5391 18.9062 35.4453 18.8906C35.3516 18.875 35.2578 18.8906 35.1641 18.9375C35.1641 18.9844 35.1641 19.0234 35.1641 19.0547C35.1797 19.1016 35.1719 19.1484 35.1406 19.1953C35.0312 19.3047 34.9375 19.3984 34.8594 19.4766C34.8438 19.5547 34.8359 19.6328 34.8359 19.7109C34.8516 19.7891 34.8281 19.8516 34.7656 19.8984C34.7344 20.0703 34.6953 20.1562 34.6484 20.1562C34.6172 20.1562 34.5938 20.1797 34.5781 20.2266C34.7188 20.4453 34.7344 20.5781 34.625 20.625C34.4375 20.7188 34.3438 20.7109 34.3438 20.6016C34.3438 20.5078 34.3359 20.4219 34.3203 20.3438C34.1953 20.1875 34.1406 20.0859 34.1562 20.0391C34.1875 20.0078 34.2109 19.9766 34.2266 19.9453C34.2266 19.6484 34.2734 19.4531 34.3672 19.3594C34.2734 19.25 34.2188 19.1875 34.2031 19.1719C34.2031 19.1719 34.2031 19.1641 34.2031 19.1484C34.2656 18.9766 34.2969 18.8672 34.2969 18.8203C34.2969 18.7891 34.2812 18.75 34.25 18.7031C34.2812 18.5781 34.2969 18.4766 34.2969 18.3984C34.3594 18.3203 34.4375 18.25 34.5312 18.1875C34.625 18.1406 34.6484 18.0703 34.6016 17.9766C34.4609 17.8828 34.3828 17.8281 34.3672 17.8125C34.3672 17.7969 34.3672 17.7812 34.3672 17.7656C34.3359 17.5469 34.3359 17.3828 34.3672 17.2734C34.3984 17.1484 34.3984 17.0469 34.3672 16.9688C34.3672 16.8906 34.3984 16.7969 34.4609 16.6875C34.5234 16.5625 34.5469 16.4844 34.5312 16.4531C34.4531 16.3594 34.3906 16.2891 34.3438 16.2422C34.3594 16.3672 34.3281 16.4531 34.25 16.5C34.1719 16.5469 34.1172 16.5312 34.0859 16.4531C34.0547 16.4844 34.0312 16.5469 34.0156 16.6406C34 16.7344 33.9766 16.7656 33.9453 16.7344C33.8359 16.8438 33.7812 16.9297 33.7812 16.9922C33.7812 17.0391 33.7656 17.0781 33.7344 17.1094C33.6406 17.375 33.5469 17.5312 33.4531 17.5781C33.3594 17.6094 33.25 17.6094 33.125 17.5781C33.0156 17.6094 32.9297 17.6562 32.8672 17.7188C32.8203 17.7812 32.7422 17.8281 32.6328 17.8594C32.6016 17.8906 32.5703 17.9297 32.5391 17.9766C32.5234 18.0234 32.4766 18.0469 32.3984 18.0469C32.2891 18.1406 32.2031 18.1875 32.1406 18.1875C32.0938 18.2031 32.0469 18.2031 32 18.1875C31.9062 18.25 31.8281 18.2812 31.7656 18.2812C31.7188 18.2812 31.6797 18.2656 31.6484 18.2344C31.5234 18.2969 31.4062 18.3281 31.2969 18.3281C31.1406 18.2969 31.0547 18.2891 31.0391 18.3047C31.0234 18.3359 31 18.3594 30.9688 18.375C30.8906 18.3906 30.8438 18.375 30.8281 18.3281C30.8125 18.2812 30.7734 18.25 30.7109 18.2344L30.5 18.4219C30.4688 18.375 30.4297 18.3359 30.3828 18.3047C30.3516 18.2734 30.3125 18.2422 30.2656 18.2109C30.1406 18.2422 30.0391 18.2266 29.9609 18.1641C29.8984 18.1016 29.8281 18.0391 29.75 17.9766C29.5469 17.9922 29.4141 17.9766 29.3516 17.9297C29.2891 17.8828 29.1875 17.8672 29.0469 17.8828C28.9844 17.8516 28.9219 17.8125 28.8594 17.7656C28.8125 17.7031 28.7578 17.6484 28.6953 17.6016C28.5547 17.5859 28.4531 17.4922 28.3906 17.3203C28.0469 17.1016 27.8281 16.9375 27.7344 16.8281C27.6094 16.7656 27.5312 16.7266 27.5 16.7109C27.4844 16.6797 27.4844 16.6406 27.5 16.5938C27.3594 16.5938 27.2578 16.6016 27.1953 16.6172C27.1328 16.6172 27.0781 16.6016 27.0312 16.5703C27 16.3984 26.9609 16.2422 26.9141 16.1016C26.8672 15.9609 26.8047 15.8359 26.7266 15.7266L26.5156 15.4219L26.3984 15.1172C26.3672 15.0703 26.3281 15.0312 26.2812 15C26.25 14.9531 26.2188 14.8984 26.1875 14.8359C26.1562 14.6641 26.1094 14.5547 26.0469 14.5078C26 14.4453 25.9531 14.375 25.9062 14.2969C25.9062 14.2188 25.8906 14.1484 25.8594 14.0859C25.8438 14.0078 25.8438 13.9297 25.8594 13.8516C25.7969 13.6953 25.75 13.6016 25.7188 13.5703C25.7031 13.5391 25.7031 13.4844 25.7188 13.4062C25.5781 13.2344 25.5 13.1016 25.4844 13.0078C25.4688 12.8984 25.4766 12.7891 25.5078 12.6797C25.4297 12.5391 25.3984 12.4609 25.4141 12.4453C25.4297 12.4141 25.4453 12.3828 25.4609 12.3516C25.3516 12.2266 25.2891 12.1562 25.2734 12.1406C25.2578 12.125 25.25 12.1016 25.25 12.0703C25.2656 11.9453 25.2812 11.8359 25.2969 11.7422C25.3281 11.6484 25.3438 11.5312 25.3438 11.3906C25.3125 11.3438 25.2812 11.3047 25.25 11.2734C25.2344 11.2266 25.2344 11.1641 25.25 11.0859C25.1562 10.9922 25.1016 10.9062 25.0859 10.8281C25.1641 10.6562 25.1641 10.5 25.0859 10.3594C25.0547 10.2188 25.0547 10.0859 25.0859 9.96094C25.1328 9.83594 25.1328 9.71875 25.0859 9.60938C25.1016 9.53125 25.1016 9.47656 25.0859 9.44531C25.0859 9.41406 25.0703 9.36719 25.0391 9.30469C25.0859 9.10156 25.1016 8.94531 25.0859 8.83594C25.0703 8.71094 25.1016 8.59375 25.1797 8.48438C25.1328 8.09375 25.1641 7.83594 25.2734 7.71094C25.2734 7.64844 25.2578 7.60156 25.2266 7.57031C25.2109 7.53906 25.1875 7.49219 25.1562 7.42969C25.1719 7.30469 25.2031 7.21094 25.25 7.14844C25.2969 7.08594 25.3438 7.01562 25.3906 6.9375C25.4219 6.84375 25.4375 6.72656 25.4375 6.58594C25.4375 6.44531 25.4375 6.3125 25.4375 6.1875C25.4531 6.09375 25.4688 6 25.4844 5.90625C25.5156 5.79688 25.5391 5.6875 25.5547 5.57812C25.5078 5.45312 25.5156 5.34375 25.5781 5.25C25.5469 5.125 25.5547 5.03125 25.6016 4.96875C25.6641 4.89062 25.7031 4.8125 25.7188 4.73438C25.75 4.6875 25.7891 4.64844 25.8359 4.61719C25.8828 4.57031 25.9219 4.50781 25.9531 4.42969C25.9844 4.27344 26.0391 4.1875 26.1172 4.17188C26.1953 4.14062 26.25 4.09375 26.2812 4.03125C26.3281 3.76562 26.4297 3.55469 26.5859 3.39844C26.5859 3.21094 26.6016 3.09375 26.6328 3.04688C26.6641 2.98438 26.6953 2.92187 26.7266 2.85938C26.7266 2.75 26.75 2.66406 26.7969 2.60156C26.8438 2.53906 26.875 2.45312 26.8906 2.34375C26.9688 2.29688 27.0547 2.25781 27.1484 2.22656C27.2578 2.19531 27.3438 2.14063 27.4062 2.0625C27.5625 1.96875 27.6641 1.89062 27.7109 1.82812C27.7734 1.76563 27.8516 1.71875 27.9453 1.6875C28.1328 1.60937 28.25 1.54688 28.2969 1.5C28.3438 1.4375 28.3906 1.375 28.4375 1.3125C28.5312 1.17188 28.6016 1.09375 28.6484 1.07812C28.6953 1.0625 28.75 1.0625 28.8125 1.07812C28.9844 0.953125 29.1719 0.890625 29.375 0.890625C29.5938 0.8125 29.75 0.75 29.8438 0.703125C29.9531 0.640625 30.0859 0.59375 30.2422 0.5625C30.3047 0.53125 30.3594 0.507812 30.4062 0.492188C30.4531 0.476563 30.5156 0.484375 30.5938 0.515625C30.6406 0.578125 30.7109 0.617188 30.8047 0.632812C30.9141 0.632812 31.0234 0.648437 31.1328 0.679688C31.1797 0.648437 31.2188 0.625 31.25 0.609375C31.2969 0.59375 31.3594 0.585938 31.4375 0.585938C31.5781 0.632812 31.6562 0.65625 31.6719 0.65625C31.7031 0.640625 31.7344 0.632812 31.7656 0.632812C31.7969 0.664063 31.8281 0.703125 31.8594 0.75C31.8906 0.78125 31.9297 0.804688 31.9766 0.820312C32.0703 0.789062 32.1562 0.765625 32.2344 0.75C32.3125 0.734375 32.3906 0.726562 32.4688 0.726562C32.7188 0.757813 32.9375 0.8125 33.125 0.890625C33.2969 0.984375 33.3594 1.04687 33.3125 1.07812C33.2812 1.09375 33.2812 1.13281 33.3125 1.19531C33.375 1.21094 33.4453 1.21875 33.5234 1.21875C33.6016 1.20313 33.6641 1.21094 33.7109 1.24219C33.7422 1.32031 33.7891 1.38281 33.8516 1.42969C33.9141 1.46094 33.9688 1.50781 34.0156 1.57031C34.125 1.57031 34.2031 1.58594 34.25 1.61719C34.3125 1.64844 34.3594 1.6875 34.3906 1.73438C34.4375 1.8125 34.5234 1.88281 34.6484 1.94531L34.8828 2.08594C35.0078 2.08594 35.1016 2.09375 35.1641 2.10938C35.2266 2.17187 35.2812 2.21094 35.3281 2.22656C35.375 2.24219 35.3828 2.28125 35.3516 2.34375L35.3281 2.64844C35.4062 2.64844 35.5078 2.66406 35.6328 2.69531C35.6641 2.82031 35.6797 2.91406 35.6797 2.97656C35.6328 3.17969 35.6641 3.28125 35.7734 3.28125C35.8828 3.26562 35.9609 3.29688 36.0078 3.375C36.0078 3.45312 35.9922 3.50781 35.9609 3.53906C35.9297 3.57031 35.9219 3.61719 35.9375 3.67969C35.8438 3.77344 35.7344 3.85156 35.6094 3.91406C35.5625 4.08594 35.4766 4.17188 35.3516 4.17188C35.2266 4.15625 35.1094 4.1875 35 4.26562C35.0156 4.46875 34.9844 4.5625 34.9062 4.54688C34.8281 4.53125 34.7734 4.57812 34.7422 4.6875C34.7422 4.92188 34.6875 5.05469 34.5781 5.08594C34.4844 5.10156 34.3984 5.15625 34.3203 5.25C34.3203 5.32812 34.2969 5.38281 34.25 5.41406C34.2031 5.44531 34.1562 5.48438 34.1094 5.53125C33.9844 5.73438 33.8828 5.84375 33.8047 5.85938C33.7266 5.85938 33.6641 5.88281 33.6172 5.92969C33.5703 6.02344 33.5234 6.07812 33.4766 6.09375C33.4453 6.09375 33.4141 6.10938 33.3828 6.14062C33.3516 6.20312 33.3125 6.25 33.2656 6.28125C33.2344 6.29688 33.2031 6.32031 33.1719 6.35156C33.1094 6.46094 33.0547 6.52344 33.0078 6.53906C32.9609 6.53906 32.9141 6.55469 32.8672 6.58594C32.7109 6.69531 32.5938 6.75 32.5156 6.75C32.4375 6.75 32.4141 6.70312 32.4453 6.60938C32.4453 6.53125 32.4688 6.47656 32.5156 6.44531C32.5781 6.39844 32.625 6.35938 32.6562 6.32812C32.6406 6.28125 32.6172 6.23438 32.5859 6.1875C32.5547 6.14062 32.5234 6.09375 32.4922 6.04688C32.3203 5.96875 32.2578 5.89844 32.3047 5.83594C32.3672 5.75781 32.4141 5.69531 32.4453 5.64844C32.4609 5.42969 32.4844 5.28125 32.5156 5.20312C32.5625 5.125 32.5859 5.04688 32.5859 4.96875C32.7109 4.82812 32.75 4.74219 32.7031 4.71094C32.6719 4.67969 32.6328 4.64844 32.5859 4.61719C32.5547 4.53906 32.5391 4.46875 32.5391 4.40625C32.5391 4.34375 32.5547 4.27344 32.5859 4.19531C32.5703 4.17969 32.6094 4.125 32.7031 4.03125C32.7969 3.92188 32.8359 3.85156 32.8203 3.82031C32.6641 3.74219 32.5938 3.69531 32.6094 3.67969C32.6406 3.66406 32.6484 3.64062 32.6328 3.60938C32.6016 3.57812 32.5703 3.54688 32.5391 3.51562C32.5234 3.46875 32.4766 3.45312 32.3984 3.46875C32.2891 3.35938 32.2109 3.3125 32.1641 3.32812C32.1172 3.34375 32.0547 3.33594 31.9766 3.30469C31.9453 3.25781 31.9062 3.21094 31.8594 3.16406C31.8281 3.10156 31.8203 3.02344 31.8359 2.92969C31.6953 2.88281 31.6016 2.88281 31.5547 2.92969C31.5078 2.97656 31.4453 3.01562 31.3672 3.04688C31.2891 3.01562 31.2266 2.98438 31.1797 2.95312C31.1484 2.90625 31.1172 2.86719 31.0859 2.83594C30.9922 2.86719 30.9219 2.91406 30.875 2.97656C30.8281 3.02344 30.7734 3.07031 30.7109 3.11719C30.5234 3.03906 30.4062 3.03906 30.3594 3.11719C30.3281 3.19531 30.2734 3.25781 30.1953 3.30469C30.1016 3.44531 29.9922 3.57812 29.8672 3.70312C29.7109 3.76562 29.6172 3.84375 29.5859 3.9375C29.5547 4.03125 29.5156 4.11719 29.4688 4.19531C29.3594 4.28906 29.2891 4.375 29.2578 4.45312C29.2266 4.53125 29.2266 4.60938 29.2578 4.6875C29.1328 4.84375 29.0234 4.9375 28.9297 4.96875C28.8359 5 28.8047 5.08594 28.8359 5.22656L28.5781 5.53125C28.5781 5.76562 28.5469 5.9375 28.4844 6.04688C28.3594 6.1875 28.3203 6.33594 28.3672 6.49219C28.4141 6.63281 28.4375 6.78125 28.4375 6.9375C28.3906 7.01562 28.3594 7.10156 28.3438 7.19531C28.3438 7.27344 28.3125 7.32812 28.25 7.35938C28.2344 7.4375 28.2344 7.50781 28.25 7.57031C28.2656 7.61719 28.2734 7.67188 28.2734 7.73438C28.1797 7.89062 28.1484 7.99219 28.1797 8.03906C28.2266 8.07031 28.2656 8.10938 28.2969 8.15625C28.2812 8.26562 28.2344 8.34375 28.1562 8.39062C28.0781 8.42188 28.0547 8.5 28.0859 8.625C28.1953 8.89062 28.2344 9.11719 28.2031 9.30469C28.1719 9.49219 28.1875 9.67188 28.25 9.84375C28.25 9.92188 28.2344 9.98438 28.2031 10.0312C28.1875 10.0625 28.1641 10.1016 28.1328 10.1484C28.1328 10.2734 28.1484 10.3828 28.1797 10.4766C28.2266 10.5547 28.2656 10.6406 28.2969 10.7344C28.2656 10.7812 28.2266 10.8047 28.1797 10.8047C28.1328 10.7891 28.0859 10.7812 28.0391 10.7812C28.1172 11 28.1797 11.1953 28.2266 11.3672C28.2891 11.5391 28.3594 11.6953 28.4375 11.8359C28.4688 11.9766 28.4844 12.0781 28.4844 12.1406C28.5 12.2031 28.5078 12.2734 28.5078 12.3516C28.4766 12.3828 28.4297 12.3984 28.3672 12.3984C28.3203 12.3984 28.2734 12.4062 28.2266 12.4219C28.2422 12.5 28.2734 12.5547 28.3203 12.5859C28.3672 12.6016 28.4062 12.6328 28.4375 12.6797C28.5156 12.7109 28.5938 12.7812 28.6719 12.8906C28.6875 13 28.7031 13.1094 28.7188 13.2188C28.7344 13.3125 28.7578 13.4219 28.7891 13.5469C28.9453 13.6406 29.0078 13.7031 28.9766 13.7344C28.9609 13.7656 28.9453 13.8047 28.9297 13.8516C28.9922 14.0547 29.0625 14.1719 29.1406 14.2031C29.2188 14.2188 29.2891 14.25 29.3516 14.2969C29.3984 14.5625 29.4688 14.75 29.5625 14.8594L29.7734 15.1406C29.9766 15.25 30.1562 15.3438 30.3125 15.4219C30.3594 15.4062 30.3984 15.3984 30.4297 15.3984C30.4766 15.3828 30.5312 15.375 30.5938 15.375C30.6562 15.3906 30.6953 15.4375 30.7109 15.5156C30.7266 15.5781 30.75 15.6328 30.7812 15.6797C30.9062 15.6953 31.0547 15.6953 31.2266 15.6797C31.3984 15.6484 31.5234 15.5938 31.6016 15.5156C31.8359 15.5469 31.9844 15.5156 32.0469 15.4219C32.125 15.3281 32.2188 15.2656 32.3281 15.2344C32.3594 15.1406 32.4375 15.0625 32.5625 15C32.7812 14.9219 32.8984 14.8906 32.9141 14.9062C33.1484 14.7969 33.2812 14.6875 33.3125 14.5781C33.3594 14.4688 33.4219 14.3828 33.5 14.3203C33.5 14.2734 33.5234 14.1875 33.5703 14.0625C33.6172 13.9375 33.6562 13.8672 33.6875 13.8516C33.875 13.8828 33.9375 13.8203 33.875 13.6641C33.8281 13.4922 33.8203 13.3594 33.8516 13.2656C34.1016 13.1094 34.2734 12.9062 34.3672 12.6562C34.3203 12.5312 34.3281 12.375 34.3906 12.1875C34.4531 11.9844 34.5 11.8672 34.5312 11.8359C34.5 11.8047 34.4531 11.7891 34.3906 11.7891C34.3281 11.7891 34.2578 11.7969 34.1797 11.8125C34.1172 11.8125 34.0547 11.8203 33.9922 11.8359C33.9297 11.8359 33.8906 11.8203 33.875 11.7891C33.7969 11.7422 33.7578 11.7109 33.7578 11.6953C33.7734 11.6641 33.7656 11.6172 33.7344 11.5547C33.6562 11.5703 33.5781 11.6172 33.5 11.6953C33.4375 11.7734 33.3594 11.8125 33.2656 11.8125C32.9062 11.6875 32.6953 11.6641 32.6328 11.7422C32.5703 11.8047 32.4766 11.8672 32.3516 11.9297C32.2734 11.9297 32.2266 11.9141 32.2109 11.8828C32.1953 11.8516 32.1641 11.8281 32.1172 11.8125H31.7656C31.7031 11.7969 31.6641 11.7734 31.6484 11.7422C31.6328 11.6953 31.6016 11.6641 31.5547 11.6484C31.4922 11.6484 31.4453 11.6719 31.4141 11.7188C31.3984 11.75 31.3516 11.7734 31.2734 11.7891C31.2422 11.8047 31.1953 11.8203 31.1328 11.8359C31.0859 11.8516 31.0234 11.8594 30.9453 11.8594C30.8984 11.625 30.9141 11.4688 30.9922 11.3906C31.0703 11.2969 31.1016 11.1719 31.0859 11.0156C31.1172 10.9844 31.1406 10.9453 31.1562 10.8984C31.1719 10.8359 31.1953 10.7812 31.2266 10.7344C31.1484 10.5625 31.1562 10.4141 31.25 10.2891C31.2031 10.2578 31.1562 10.2266 31.1094 10.1953C31.0625 10.1484 31.0312 10.0938 31.0156 10.0312C30.9688 10 30.9219 9.97656 30.875 9.96094C30.8438 9.94531 30.8203 9.90625 30.8047 9.84375C30.8359 9.76562 30.9141 9.73438 31.0391 9.75C31.1797 9.76562 31.2891 9.75781 31.3672 9.72656C31.3984 9.67969 31.4062 9.63281 31.3906 9.58594C31.375 9.52344 31.3906 9.47656 31.4375 9.44531C31.5156 9.42969 31.5625 9.45312 31.5781 9.51562C31.6094 9.5625 31.6406 9.60938 31.6719 9.65625C31.75 9.60938 31.8438 9.60156 31.9531 9.63281C32.0781 9.64844 32.1953 9.64844 32.3047 9.63281L32.6328 9.60938C32.9297 9.51562 33.125 9.48438 33.2188 9.51562C33.3125 9.54688 33.4453 9.5625 33.6172 9.5625C33.6797 9.54688 33.7344 9.52344 33.7812 9.49219C33.8438 9.46094 33.9219 9.45312 34.0156 9.46875C34.25 9.57812 34.3984 9.61719 34.4609 9.58594C34.5391 9.55469 34.6328 9.55469 34.7422 9.58594C34.9141 9.53906 35.0234 9.53125 35.0703 9.5625C35.1172 9.57812 35.1641 9.59375 35.2109 9.60938C35.2891 9.57812 35.3906 9.54688 35.5156 9.51562C35.6406 9.48438 35.7344 9.52344 35.7969 9.63281C35.875 9.60156 35.9375 9.60156 35.9844 9.63281C36.0312 9.66406 36.0938 9.69531 36.1719 9.72656C36.25 9.69531 36.3281 9.67969 36.4062 9.67969C36.5 9.66406 36.5859 9.67188 36.6641 9.70312C36.7266 9.65625 36.8047 9.60156 36.8984 9.53906C37.0078 9.46094 37.1016 9.48438 37.1797 9.60938C37.1484 9.71875 37.0781 9.84375 36.9688 9.98438C36.8594 10.1094 36.8281 10.2422 36.875 10.3828C36.7656 10.5078 36.7109 10.6406 36.7109 10.7812C36.7266 10.9219 36.7188 11.0312 36.6875 11.1094C36.6875 11.1562 36.7031 11.1953 36.7344 11.2266C36.7812 11.2578 36.8281 11.2891 36.875 11.3203C36.9375 11.3359 36.9844 11.3594 37.0156 11.3906C37.0625 11.4062 37.0859 11.4375 37.0859 11.4844C37.0859 11.6094 36.9766 11.6562 36.7578 11.625C36.7422 11.6562 36.7422 11.7109 36.7578 11.7891C36.7734 11.8516 36.7969 11.8984 36.8281 11.9297C36.8438 11.9453 36.8516 12.0781 36.8516 12.3281C36.8516 12.5625 36.8516 12.8359 36.8516 13.1484C36.8516 13.4453 36.8438 13.7422 36.8281 14.0391C36.8281 14.3359 36.8281 14.5391 36.8281 14.6484C36.8594 14.7109 36.8906 14.7734 36.9219 14.8359C36.9688 14.8828 36.9609 14.9375 36.8984 15ZM51.0547 8.8125C51.1328 8.98438 51.125 9.14062 51.0312 9.28125C50.9531 9.42188 50.875 9.55469 50.7969 9.67969C50.8125 9.74219 50.8281 9.79688 50.8438 9.84375C50.8594 9.875 50.875 9.91406 50.8906 9.96094C50.8906 10.0703 50.8594 10.1875 50.7969 10.3125C50.8125 10.4375 50.8047 10.5625 50.7734 10.6875C50.7578 10.7969 50.7578 10.9141 50.7734 11.0391C50.7891 11.0859 50.8047 11.1328 50.8203 11.1797C50.8359 11.2266 50.8438 11.2734 50.8438 11.3203C50.8281 11.4453 50.7891 11.5391 50.7266 11.6016C50.6797 11.6641 50.6328 11.7344 50.5859 11.8125C50.6172 11.8906 50.6328 11.9766 50.6328 12.0703C50.6484 12.1641 50.6406 12.25 50.6094 12.3281C50.5469 12.375 50.5 12.4375 50.4688 12.5156C50.4375 12.5781 50.4062 12.6406 50.375 12.7031C50.4062 12.8594 50.4141 12.9922 50.3984 13.1016C50.3828 13.2109 50.3438 13.3047 50.2812 13.3828C50.3281 13.7109 50.2578 13.9688 50.0703 14.1562C49.9922 14.375 49.9062 14.5156 49.8125 14.5781C49.7188 14.625 49.6484 14.7109 49.6016 14.8359C49.6172 14.9453 49.6406 15.0547 49.6719 15.1641C49.7031 15.2578 49.6562 15.3203 49.5312 15.3516C49.4844 15.4297 49.4297 15.5078 49.3672 15.5859C49.3203 15.6641 49.2812 15.7422 49.25 15.8203C49.25 16.0234 49.2109 16.125 49.1328 16.125C49.1172 16.1719 49.0938 16.2109 49.0625 16.2422C49.0312 16.2578 49 16.2891 48.9688 16.3359C48.9219 16.3828 48.8906 16.4375 48.875 16.5C48.875 16.5625 48.8516 16.6094 48.8047 16.6406C48.5859 16.75 48.4375 16.8359 48.3594 16.8984C48.2812 16.9609 48.2188 17.0469 48.1719 17.1562C48.0469 17.1875 47.9453 17.2422 47.8672 17.3203C47.8047 17.3828 47.6953 17.4062 47.5391 17.3906C47.4453 17.4219 47.3906 17.5 47.375 17.625C47.3594 17.7344 47.3047 17.8047 47.2109 17.8359C46.9922 17.9141 46.8438 18.0078 46.7656 18.1172C46.7031 18.2266 46.5781 18.2656 46.3906 18.2344C46.2188 18.3281 46.0391 18.4297 45.8516 18.5391C45.7422 18.5078 45.6328 18.5 45.5234 18.5156C45.4297 18.5469 45.3281 18.5469 45.2188 18.5156C45.1719 18.4688 45.1328 18.4297 45.1016 18.3984C45.0703 18.3672 45.0312 18.3359 44.9844 18.3047C44.875 18.3203 44.7891 18.3594 44.7266 18.4219C44.6797 18.5 44.6172 18.5625 44.5391 18.6094C44.4141 18.6406 44.2891 18.6406 44.1641 18.6094C44.0547 18.5938 43.9375 18.5859 43.8125 18.5859C43.7344 18.5547 43.6641 18.5234 43.6016 18.4922C43.5391 18.4766 43.4688 18.4609 43.3906 18.4453C43.3438 18.4141 43.3047 18.375 43.2734 18.3281C43.2422 18.2812 43.2109 18.2422 43.1797 18.2109C43.1016 18.1953 43.0234 18.1875 42.9453 18.1875C42.8828 18.2031 42.8125 18.2109 42.7344 18.2109C42.6562 18.1797 42.5859 18.1328 42.5234 18.0703C42.4609 18.0234 42.3984 17.9766 42.3359 17.9297C42.2734 17.9141 42.2188 17.8984 42.1719 17.8828C42.125 17.8516 42.0859 17.8203 42.0547 17.7891C41.8672 17.7266 41.7266 17.6484 41.6328 17.5547C41.5859 17.5703 41.5391 17.5938 41.4922 17.625C41.4609 17.6406 41.4141 17.6406 41.3516 17.625C41.2891 17.5938 41.2422 17.5469 41.2109 17.4844C41.1953 17.4062 41.1484 17.3359 41.0703 17.2734C41.0234 17.2266 40.9375 17.1797 40.8125 17.1328C40.7188 17.0391 40.6562 16.9531 40.625 16.875C40.6094 16.75 40.5859 16.6719 40.5547 16.6406C40.5391 16.6094 40.5156 16.5781 40.4844 16.5469C40.2656 16.375 40.1016 16.2422 39.9922 16.1484C39.8984 16.0391 39.8516 15.875 39.8516 15.6562C39.8203 15.5625 39.7969 15.4766 39.7812 15.3984C39.6875 15.3203 39.6016 15.2344 39.5234 15.1406C39.4609 15.0469 39.3906 14.9531 39.3125 14.8594C39.2969 14.75 39.2969 14.625 39.3125 14.4844C39.2812 14.4062 39.2422 14.3516 39.1953 14.3203C39.1484 14.2734 39.1094 14.2109 39.0781 14.1328C39.0625 14.0703 39.0703 14.0312 39.1016 14.0156C39.1484 13.9844 39.1562 13.9375 39.125 13.875C39.1094 13.8125 39.0703 13.7734 39.0078 13.7578C38.9609 13.7422 38.9219 13.7188 38.8906 13.6875C38.8125 13.5625 38.7891 13.3984 38.8203 13.1953C38.7891 13.1172 38.75 13.0625 38.7031 13.0312C38.6562 13 38.6172 12.9609 38.5859 12.9141C38.6016 12.8359 38.6172 12.7656 38.6328 12.7031C38.6484 12.625 38.6562 12.5391 38.6562 12.4453C38.6406 12.3516 38.6094 12.2656 38.5625 12.1875C38.5156 12.0938 38.4766 12.0078 38.4453 11.9297C38.5234 11.7734 38.5234 11.6094 38.4453 11.4375C38.4766 11.3594 38.5156 11.2891 38.5625 11.2266C38.6094 11.1484 38.6172 11.0469 38.5859 10.9219C38.4922 10.8438 38.4062 10.7969 38.3281 10.7812C38.2656 10.7656 38.2188 10.7344 38.1875 10.6875C38.1406 10.5781 38.125 10.4688 38.1406 10.3594C38.1562 10.2344 38.1797 10.1328 38.2109 10.0547C38.2266 9.86719 38.2422 9.73438 38.2578 9.65625C38.2891 9.5625 38.3125 9.46094 38.3281 9.35156C38.2031 9.10156 38.1641 8.91406 38.2109 8.78906C38.2578 8.64844 38.2969 8.50781 38.3281 8.36719C38.3125 8.32031 38.2969 8.28125 38.2812 8.25C38.2656 8.20312 38.25 8.15625 38.2344 8.10938C38.2344 7.95312 38.25 7.82031 38.2812 7.71094C38.3125 7.60156 38.3438 7.48438 38.375 7.35938C38.4531 7.28125 38.5156 7.17969 38.5625 7.05469C38.5625 6.92969 38.5781 6.83594 38.6094 6.77344C38.6719 6.63281 38.6875 6.55469 38.6562 6.53906C38.6406 6.50781 38.6406 6.47656 38.6562 6.44531C38.6562 6.27344 38.6641 6.10156 38.6797 5.92969C38.7109 5.75781 38.7109 5.57812 38.6797 5.39062C38.7578 5.28125 38.8438 5.16406 38.9375 5.03906C38.9688 4.99219 39 4.94531 39.0312 4.89844C39.0781 4.83594 39.125 4.77344 39.1719 4.71094C39.1406 4.46094 39.1641 4.28125 39.2422 4.17188C39.3359 4.0625 39.4609 3.97656 39.6172 3.91406C39.8516 3.80469 40.0156 3.6875 40.1094 3.5625C40.2031 3.42188 40.3125 3.29688 40.4375 3.1875C40.4375 3.0625 40.4531 2.96094 40.4844 2.88281C40.5156 2.78906 40.5469 2.69531 40.5781 2.60156C40.6719 2.52344 40.7578 2.46094 40.8359 2.41406C40.9297 2.35156 41.0156 2.28906 41.0938 2.22656C41.1094 2.11719 41.1406 2.03125 41.1875 1.96875C41.25 1.90625 41.3047 1.84375 41.3516 1.78125C41.5078 1.71875 41.6406 1.64062 41.75 1.54688C41.8594 1.45312 42 1.38281 42.1719 1.33594C42.2188 1.25781 42.2656 1.1875 42.3125 1.125C42.3594 1.04687 42.4219 0.992188 42.5 0.960938C42.5625 0.960938 42.6094 0.953125 42.6406 0.9375C42.6875 0.90625 42.7344 0.890625 42.7812 0.890625C42.9688 0.90625 43.0938 0.898438 43.1562 0.867188C43.2344 0.820312 43.3047 0.78125 43.3672 0.75C43.4453 0.78125 43.5156 0.789062 43.5781 0.773438C43.6406 0.742187 43.6953 0.710938 43.7422 0.679688C43.8047 0.632812 43.8594 0.601562 43.9062 0.585938C43.9531 0.570313 44.0156 0.585938 44.0938 0.632812C44.1875 0.757813 44.2656 0.804688 44.3281 0.773438C44.3906 0.742187 44.4609 0.71875 44.5391 0.703125C44.6484 0.734375 44.75 0.734375 44.8438 0.703125C44.9531 0.671875 45.0703 0.671875 45.1953 0.703125C45.2578 0.671875 45.3047 0.648437 45.3359 0.632812C45.3828 0.601562 45.4453 0.585938 45.5234 0.585938C45.6328 0.695312 45.6719 0.765625 45.6406 0.796875C45.625 0.8125 45.6172 0.835937 45.6172 0.867188C45.7266 0.882812 45.8281 0.9375 45.9219 1.03125C46.125 1 46.2812 0.984375 46.3906 0.984375C46.4688 1 46.5703 1.03906 46.6953 1.10156C46.7266 1.13281 46.7578 1.17188 46.7891 1.21875C46.8203 1.25 46.8516 1.28125 46.8828 1.3125C47.0234 1.48438 47.125 1.59375 47.1875 1.64062C47.25 1.6875 47.3203 1.72656 47.3984 1.75781C47.4609 1.74219 47.4844 1.71094 47.4688 1.66406C47.4688 1.61719 47.5078 1.58594 47.5859 1.57031C47.6641 1.55469 47.7188 1.59375 47.75 1.6875C47.7969 1.78125 47.8438 1.85156 47.8906 1.89844C47.9688 1.96094 48.0312 2.03125 48.0781 2.10938C48.1406 2.1875 48.2266 2.24219 48.3359 2.27344C48.4297 2.25781 48.5156 2.25781 48.5938 2.27344C48.6719 2.28906 48.7266 2.33594 48.7578 2.41406C48.7734 2.52344 48.7656 2.60156 48.7344 2.64844C48.7031 2.69531 48.6797 2.75781 48.6641 2.83594C48.7109 2.89844 48.7734 2.9375 48.8516 2.95312C48.9453 2.96875 49.0078 3.01562 49.0391 3.09375C49.2266 3.1875 49.3125 3.28906 49.2969 3.39844C49.2812 3.50781 49.2578 3.60156 49.2266 3.67969C49.2578 3.75781 49.2891 3.82812 49.3203 3.89062C49.3516 3.9375 49.4219 3.95312 49.5312 3.9375C49.6719 4.03125 49.7422 4.23438 49.7422 4.54688C49.8359 4.60938 49.9297 4.71094 50.0234 4.85156C50.1172 4.97656 50.1172 5.11719 50.0234 5.27344C50.0547 5.35156 50.0938 5.42188 50.1406 5.48438C50.1875 5.54688 50.2109 5.63281 50.2109 5.74219C50.3516 5.86719 50.4297 5.94531 50.4453 5.97656C50.4609 5.99219 50.4766 6.01562 50.4922 6.04688C50.4766 6.09375 50.4688 6.14844 50.4688 6.21094C50.4844 6.25781 50.4922 6.32031 50.4922 6.39844C50.4922 6.58594 50.5078 6.73438 50.5391 6.84375C50.5703 6.9375 50.6172 7.02344 50.6797 7.10156C50.6797 7.14844 50.6875 7.19531 50.7031 7.24219C50.7188 7.27344 50.7344 7.3125 50.75 7.35938C50.75 7.46875 50.7422 7.5625 50.7266 7.64062C50.7109 7.71875 50.7031 7.80469 50.7031 7.89844C50.7031 8.08594 50.7188 8.21875 50.75 8.29688C50.7969 8.375 50.8125 8.49219 50.7969 8.64844C50.8281 8.67969 50.8672 8.71094 50.9141 8.74219C50.9766 8.75781 51.0234 8.78125 51.0547 8.8125ZM47.9375 9.09375C47.9062 9.04688 47.8984 9 47.9141 8.95312C47.9297 8.89062 47.9375 8.82812 47.9375 8.76562L47.6562 8.48438C47.625 8.40625 47.6094 8.32812 47.6094 8.25C47.625 8.15625 47.6562 8.08594 47.7031 8.03906C47.625 7.83594 47.5859 7.6875 47.5859 7.59375C47.5859 7.48438 47.5938 7.39062 47.6094 7.3125C47.5781 7.23438 47.5547 7.16406 47.5391 7.10156C47.5234 7.02344 47.5234 6.92969 47.5391 6.82031C47.5859 6.61719 47.5625 6.48438 47.4688 6.42188C47.3906 6.34375 47.3516 6.26562 47.3516 6.1875C47.3359 5.96875 47.2812 5.82031 47.1875 5.74219C47.1094 5.66406 47.0547 5.5625 47.0234 5.4375C46.9297 5.26562 46.875 5.15625 46.8594 5.10938C46.8438 5.04688 46.8438 4.98438 46.8594 4.92188C46.8281 4.89062 46.7891 4.86719 46.7422 4.85156C46.6953 4.82031 46.6562 4.78906 46.625 4.75781C46.6094 4.69531 46.5781 4.64844 46.5312 4.61719C46.4844 4.58594 46.4453 4.53125 46.4141 4.45312C46.4141 4.26562 46.3672 4.125 46.2734 4.03125C46.1484 4 46.0547 3.95312 45.9922 3.89062C45.9453 3.8125 45.8984 3.73438 45.8516 3.65625C45.7734 3.5625 45.7109 3.53906 45.6641 3.58594C45.6328 3.61719 45.5781 3.625 45.5 3.60938C45.4219 3.59375 45.3828 3.55469 45.3828 3.49219C45.3984 3.42969 45.4219 3.375 45.4531 3.32812C45.375 3.3125 45.2969 3.30469 45.2188 3.30469C45.1406 3.30469 45.0938 3.26562 45.0781 3.1875C44.9062 3.14062 44.8047 3.08594 44.7734 3.02344C44.7422 2.94531 44.6797 2.89063 44.5859 2.85938C44.5078 2.89063 44.4453 2.92969 44.3984 2.97656C44.3672 3.00781 44.3203 3.03906 44.2578 3.07031C44.2578 3.21094 44.1875 3.30469 44.0469 3.35156C44 3.36719 43.9531 3.36719 43.9062 3.35156C43.875 3.33594 43.8359 3.32812 43.7891 3.32812C43.7266 3.34375 43.6719 3.35938 43.625 3.375C43.5938 3.39062 43.5547 3.41406 43.5078 3.44531C43.4609 3.53906 43.3906 3.61719 43.2969 3.67969C43.2188 3.74219 43.1406 3.80469 43.0625 3.86719C43.0156 4.02344 42.9688 4.11719 42.9219 4.14844C42.875 4.17969 42.8125 4.21094 42.7344 4.24219C42.7031 4.32031 42.6562 4.39844 42.5938 4.47656C42.5312 4.53906 42.4766 4.60938 42.4297 4.6875C42.3203 4.90625 42.25 5.05469 42.2188 5.13281C42.1875 5.21094 42.1719 5.3125 42.1719 5.4375C42.0938 5.59375 42.0234 5.74219 41.9609 5.88281C41.9141 6.00781 41.8594 6.13281 41.7969 6.25781C41.7344 6.42969 41.6641 6.60156 41.5859 6.77344C41.5234 6.92969 41.5078 7.11719 41.5391 7.33594C41.5547 7.58594 41.5469 7.78125 41.5156 7.92188C41.4844 8.04688 41.4531 8.19531 41.4219 8.36719C41.3906 8.39844 41.3672 8.44531 41.3516 8.50781C41.3359 8.55469 41.3125 8.60156 41.2812 8.64844C41.3594 8.83594 41.3828 8.95312 41.3516 9C41.3359 9.04688 41.3359 9.09375 41.3516 9.14062L41.4453 9.46875C41.4141 9.51562 41.3906 9.55469 41.375 9.58594C41.3594 9.61719 41.3359 9.65625 41.3047 9.70312C41.3359 9.76562 41.3438 9.82812 41.3281 9.89062C41.3125 9.9375 41.3047 10 41.3047 10.0781C41.3359 10.1562 41.3672 10.2344 41.3984 10.3125C41.4297 10.375 41.4609 10.4453 41.4922 10.5234C41.4766 10.5859 41.4609 10.6406 41.4453 10.6875C41.4297 10.7188 41.4141 10.7656 41.3984 10.8281C41.4141 10.9062 41.4531 10.9531 41.5156 10.9688C41.5781 10.9844 41.6172 11.0312 41.6328 11.1094C41.6172 11.3906 41.5938 11.6172 41.5625 11.7891C41.5469 11.9453 41.5703 12.0859 41.6328 12.2109C41.7578 12.3984 41.8047 12.5312 41.7734 12.6094C41.7578 12.6875 41.7578 12.7734 41.7734 12.8672C41.9141 12.9609 41.9844 13.1328 41.9844 13.3828C42.0156 13.4297 42.0547 13.4766 42.1016 13.5234C42.1641 13.5547 42.2109 13.6016 42.2422 13.6641C42.2734 13.7422 42.2891 13.8203 42.2891 13.8984C42.2891 13.9609 42.3047 14.0391 42.3359 14.1328C42.4922 14.2109 42.5938 14.3516 42.6406 14.5547C42.625 14.7578 42.6719 14.8828 42.7812 14.9297C42.8906 15.0547 42.9688 15.125 43.0156 15.1406C43.0625 15.1406 43.1016 15.1562 43.1328 15.1875C43.2109 15.4688 43.3594 15.6328 43.5781 15.6797L43.8594 15.7734C43.9375 15.8047 44.0156 15.875 44.0938 15.9844C44.2188 16 44.3125 16 44.375 15.9844C44.4531 15.9531 44.5312 15.9219 44.6094 15.8906C44.6719 15.8906 44.7656 15.9062 44.8906 15.9375C44.9375 15.9062 44.9922 15.8828 45.0547 15.8672C45.1172 15.8359 45.1875 15.8359 45.2656 15.8672C45.4375 15.7578 45.5391 15.6875 45.5703 15.6562C45.6172 15.625 45.6875 15.6094 45.7812 15.6094C45.8125 15.5625 45.8359 15.5078 45.8516 15.4453C45.8672 15.3828 45.9062 15.3359 45.9688 15.3047C46.125 15.2734 46.2344 15.25 46.2969 15.2344C46.4219 15.0312 46.5156 14.9219 46.5781 14.9062C46.6562 14.875 46.7109 14.8359 46.7422 14.7891C46.7422 14.5391 46.7656 14.3828 46.8125 14.3203C46.8594 14.2422 46.9141 14.1719 46.9766 14.1094C46.9922 13.9844 47.0078 13.8906 47.0234 13.8281C47.0547 13.75 47.0703 13.6484 47.0703 13.5234C47.1328 13.4141 47.2031 13.3281 47.2812 13.2656C47.3594 13.1875 47.4375 13.1094 47.5156 13.0312C47.5156 12.7344 47.5156 12.4531 47.5156 12.1875C47.5156 12.0625 47.5234 12 47.5391 12C47.5547 11.9844 47.5625 11.9609 47.5625 11.9297C47.625 11.8047 47.6719 11.7031 47.7031 11.625C47.7344 11.5312 47.7656 11.4453 47.7969 11.3672C47.75 11.1641 47.7422 11.0312 47.7734 10.9688C47.8047 10.9062 47.8359 10.8359 47.8672 10.7578C47.8828 10.6328 47.875 10.5312 47.8438 10.4531C47.8125 10.3594 47.7812 10.2734 47.75 10.1953C47.7812 10.0859 47.8047 9.98438 47.8203 9.89062C47.8516 9.78125 47.8828 9.6875 47.9141 9.60938C47.8984 9.51562 47.8672 9.44531 47.8203 9.39844C47.7734 9.35156 47.75 9.28125 47.75 9.1875L47.9375 9.09375Z" fill="black"/>
</svg>
